G04 #@! TF.GenerationSoftware,KiCad,Pcbnew,(5.0.2)-1*
G04 #@! TF.CreationDate,2019-10-04T12:34:02+03:00*
G04 #@! TF.ProjectId,BME280,424d4532-3830-42e6-9b69-6361645f7063,rev?*
G04 #@! TF.SameCoordinates,Original*
G04 #@! TF.FileFunction,Soldermask,Top*
G04 #@! TF.FilePolarity,Negative*
%FSLAX46Y46*%
G04 Gerber Fmt 4.6, Leading zero omitted, Abs format (unit mm)*
G04 Created by KiCad (PCBNEW (5.0.2)-1) date 04.10.2019 12:34:02*
%MOMM*%
%LPD*%
G01*
G04 APERTURE LIST*
%ADD10C,0.100000*%
G04 APERTURE END LIST*
D10*
G36*
X108726500Y-97632300D02*
X106824500Y-97632300D01*
X106824500Y-91730300D01*
X108726500Y-91730300D01*
X108726500Y-97632300D01*
X108726500Y-97632300D01*
G37*
G36*
X104057291Y-95827101D02*
X104142621Y-95835505D01*
X104279472Y-95877019D01*
X104279474Y-95877020D01*
X104279477Y-95877021D01*
X104405596Y-95944432D01*
X104516143Y-96035157D01*
X104606868Y-96145704D01*
X104674279Y-96271823D01*
X104674280Y-96271826D01*
X104674281Y-96271828D01*
X104715795Y-96408679D01*
X104729812Y-96551000D01*
X104715795Y-96693321D01*
X104674281Y-96830172D01*
X104674279Y-96830177D01*
X104606868Y-96956296D01*
X104516143Y-97066843D01*
X104405596Y-97157568D01*
X104279477Y-97224979D01*
X104279474Y-97224980D01*
X104279472Y-97224981D01*
X104142621Y-97266495D01*
X104057291Y-97274899D01*
X104035960Y-97277000D01*
X103964640Y-97277000D01*
X103943309Y-97274899D01*
X103857979Y-97266495D01*
X103721128Y-97224981D01*
X103721126Y-97224980D01*
X103721123Y-97224979D01*
X103595004Y-97157568D01*
X103484457Y-97066843D01*
X103393732Y-96956296D01*
X103326321Y-96830177D01*
X103326319Y-96830172D01*
X103284805Y-96693321D01*
X103270788Y-96551000D01*
X103284805Y-96408679D01*
X103326319Y-96271828D01*
X103326320Y-96271826D01*
X103326321Y-96271823D01*
X103393732Y-96145704D01*
X103484457Y-96035157D01*
X103595004Y-95944432D01*
X103721123Y-95877021D01*
X103721126Y-95877020D01*
X103721128Y-95877019D01*
X103857979Y-95835505D01*
X103943309Y-95827101D01*
X103964640Y-95825000D01*
X104035960Y-95825000D01*
X104057291Y-95827101D01*
X104057291Y-95827101D01*
G37*
G36*
X102057291Y-95827101D02*
X102142621Y-95835505D01*
X102279472Y-95877019D01*
X102279474Y-95877020D01*
X102279477Y-95877021D01*
X102405596Y-95944432D01*
X102516143Y-96035157D01*
X102606868Y-96145704D01*
X102674279Y-96271823D01*
X102674280Y-96271826D01*
X102674281Y-96271828D01*
X102715795Y-96408679D01*
X102729812Y-96551000D01*
X102715795Y-96693321D01*
X102674281Y-96830172D01*
X102674279Y-96830177D01*
X102606868Y-96956296D01*
X102516143Y-97066843D01*
X102405596Y-97157568D01*
X102279477Y-97224979D01*
X102279474Y-97224980D01*
X102279472Y-97224981D01*
X102142621Y-97266495D01*
X102057291Y-97274899D01*
X102035960Y-97277000D01*
X101964640Y-97277000D01*
X101943309Y-97274899D01*
X101857979Y-97266495D01*
X101721128Y-97224981D01*
X101721126Y-97224980D01*
X101721123Y-97224979D01*
X101595004Y-97157568D01*
X101484457Y-97066843D01*
X101393732Y-96956296D01*
X101326321Y-96830177D01*
X101326319Y-96830172D01*
X101284805Y-96693321D01*
X101270788Y-96551000D01*
X101284805Y-96408679D01*
X101326319Y-96271828D01*
X101326320Y-96271826D01*
X101326321Y-96271823D01*
X101393732Y-96145704D01*
X101484457Y-96035157D01*
X101595004Y-95944432D01*
X101721123Y-95877021D01*
X101721126Y-95877020D01*
X101721128Y-95877019D01*
X101857979Y-95835505D01*
X101943309Y-95827101D01*
X101964640Y-95825000D01*
X102035960Y-95825000D01*
X102057291Y-95827101D01*
X102057291Y-95827101D01*
G37*
G36*
X104057291Y-93827101D02*
X104142621Y-93835505D01*
X104279472Y-93877019D01*
X104279474Y-93877020D01*
X104279477Y-93877021D01*
X104405596Y-93944432D01*
X104516143Y-94035157D01*
X104606868Y-94145704D01*
X104674279Y-94271823D01*
X104674280Y-94271826D01*
X104674281Y-94271828D01*
X104715795Y-94408679D01*
X104729812Y-94551000D01*
X104715795Y-94693321D01*
X104674281Y-94830172D01*
X104674279Y-94830177D01*
X104606868Y-94956296D01*
X104516143Y-95066843D01*
X104405596Y-95157568D01*
X104279477Y-95224979D01*
X104279474Y-95224980D01*
X104279472Y-95224981D01*
X104142621Y-95266495D01*
X104057291Y-95274899D01*
X104035960Y-95277000D01*
X103964640Y-95277000D01*
X103943309Y-95274899D01*
X103857979Y-95266495D01*
X103721128Y-95224981D01*
X103721126Y-95224980D01*
X103721123Y-95224979D01*
X103595004Y-95157568D01*
X103484457Y-95066843D01*
X103393732Y-94956296D01*
X103326321Y-94830177D01*
X103326319Y-94830172D01*
X103284805Y-94693321D01*
X103270788Y-94551000D01*
X103284805Y-94408679D01*
X103326319Y-94271828D01*
X103326320Y-94271826D01*
X103326321Y-94271823D01*
X103393732Y-94145704D01*
X103484457Y-94035157D01*
X103595004Y-93944432D01*
X103721123Y-93877021D01*
X103721126Y-93877020D01*
X103721128Y-93877019D01*
X103857979Y-93835505D01*
X103943309Y-93827101D01*
X103964640Y-93825000D01*
X104035960Y-93825000D01*
X104057291Y-93827101D01*
X104057291Y-93827101D01*
G37*
G36*
X102057291Y-93827101D02*
X102142621Y-93835505D01*
X102279472Y-93877019D01*
X102279474Y-93877020D01*
X102279477Y-93877021D01*
X102405596Y-93944432D01*
X102516143Y-94035157D01*
X102606868Y-94145704D01*
X102674279Y-94271823D01*
X102674280Y-94271826D01*
X102674281Y-94271828D01*
X102715795Y-94408679D01*
X102729812Y-94551000D01*
X102715795Y-94693321D01*
X102674281Y-94830172D01*
X102674279Y-94830177D01*
X102606868Y-94956296D01*
X102516143Y-95066843D01*
X102405596Y-95157568D01*
X102279477Y-95224979D01*
X102279474Y-95224980D01*
X102279472Y-95224981D01*
X102142621Y-95266495D01*
X102057291Y-95274899D01*
X102035960Y-95277000D01*
X101964640Y-95277000D01*
X101943309Y-95274899D01*
X101857979Y-95266495D01*
X101721128Y-95224981D01*
X101721126Y-95224980D01*
X101721123Y-95224979D01*
X101595004Y-95157568D01*
X101484457Y-95066843D01*
X101393732Y-94956296D01*
X101326321Y-94830177D01*
X101326319Y-94830172D01*
X101284805Y-94693321D01*
X101270788Y-94551000D01*
X101284805Y-94408679D01*
X101326319Y-94271828D01*
X101326320Y-94271826D01*
X101326321Y-94271823D01*
X101393732Y-94145704D01*
X101484457Y-94035157D01*
X101595004Y-93944432D01*
X101721123Y-93877021D01*
X101721126Y-93877020D01*
X101721128Y-93877019D01*
X101857979Y-93835505D01*
X101943309Y-93827101D01*
X101964640Y-93825000D01*
X102035960Y-93825000D01*
X102057291Y-93827101D01*
X102057291Y-93827101D01*
G37*
G36*
X102057291Y-91827101D02*
X102142621Y-91835505D01*
X102279472Y-91877019D01*
X102279474Y-91877020D01*
X102279477Y-91877021D01*
X102405596Y-91944432D01*
X102516143Y-92035157D01*
X102606868Y-92145704D01*
X102674279Y-92271823D01*
X102674280Y-92271826D01*
X102674281Y-92271828D01*
X102715795Y-92408679D01*
X102729812Y-92551000D01*
X102715795Y-92693321D01*
X102674281Y-92830172D01*
X102674279Y-92830177D01*
X102606868Y-92956296D01*
X102516143Y-93066843D01*
X102405596Y-93157568D01*
X102279477Y-93224979D01*
X102279474Y-93224980D01*
X102279472Y-93224981D01*
X102142621Y-93266495D01*
X102057291Y-93274899D01*
X102035960Y-93277000D01*
X101964640Y-93277000D01*
X101943309Y-93274899D01*
X101857979Y-93266495D01*
X101721128Y-93224981D01*
X101721126Y-93224980D01*
X101721123Y-93224979D01*
X101595004Y-93157568D01*
X101484457Y-93066843D01*
X101393732Y-92956296D01*
X101326321Y-92830177D01*
X101326319Y-92830172D01*
X101284805Y-92693321D01*
X101270788Y-92551000D01*
X101284805Y-92408679D01*
X101326319Y-92271828D01*
X101326320Y-92271826D01*
X101326321Y-92271823D01*
X101393732Y-92145704D01*
X101484457Y-92035157D01*
X101595004Y-91944432D01*
X101721123Y-91877021D01*
X101721126Y-91877020D01*
X101721128Y-91877019D01*
X101857979Y-91835505D01*
X101943309Y-91827101D01*
X101964640Y-91825000D01*
X102035960Y-91825000D01*
X102057291Y-91827101D01*
X102057291Y-91827101D01*
G37*
G36*
X104057291Y-91827101D02*
X104142621Y-91835505D01*
X104279472Y-91877019D01*
X104279474Y-91877020D01*
X104279477Y-91877021D01*
X104405596Y-91944432D01*
X104516143Y-92035157D01*
X104606868Y-92145704D01*
X104674279Y-92271823D01*
X104674280Y-92271826D01*
X104674281Y-92271828D01*
X104715795Y-92408679D01*
X104729812Y-92551000D01*
X104715795Y-92693321D01*
X104674281Y-92830172D01*
X104674279Y-92830177D01*
X104606868Y-92956296D01*
X104516143Y-93066843D01*
X104405596Y-93157568D01*
X104279477Y-93224979D01*
X104279474Y-93224980D01*
X104279472Y-93224981D01*
X104142621Y-93266495D01*
X104057291Y-93274899D01*
X104035960Y-93277000D01*
X103964640Y-93277000D01*
X103943309Y-93274899D01*
X103857979Y-93266495D01*
X103721128Y-93224981D01*
X103721126Y-93224980D01*
X103721123Y-93224979D01*
X103595004Y-93157568D01*
X103484457Y-93066843D01*
X103393732Y-92956296D01*
X103326321Y-92830177D01*
X103326319Y-92830172D01*
X103284805Y-92693321D01*
X103270788Y-92551000D01*
X103284805Y-92408679D01*
X103326319Y-92271828D01*
X103326320Y-92271826D01*
X103326321Y-92271823D01*
X103393732Y-92145704D01*
X103484457Y-92035157D01*
X103595004Y-91944432D01*
X103721123Y-91877021D01*
X103721126Y-91877020D01*
X103721128Y-91877019D01*
X103857979Y-91835505D01*
X103943309Y-91827101D01*
X103964640Y-91825000D01*
X104035960Y-91825000D01*
X104057291Y-91827101D01*
X104057291Y-91827101D01*
G37*
G36*
X104726300Y-91277000D02*
X103274300Y-91277000D01*
X103274300Y-89825000D01*
X104726300Y-89825000D01*
X104726300Y-91277000D01*
X104726300Y-91277000D01*
G37*
G36*
X102057291Y-89827101D02*
X102142621Y-89835505D01*
X102279472Y-89877019D01*
X102279474Y-89877020D01*
X102279477Y-89877021D01*
X102405596Y-89944432D01*
X102516143Y-90035157D01*
X102606868Y-90145704D01*
X102674279Y-90271823D01*
X102674280Y-90271826D01*
X102674281Y-90271828D01*
X102715795Y-90408679D01*
X102729812Y-90551000D01*
X102715795Y-90693321D01*
X102674281Y-90830172D01*
X102674279Y-90830177D01*
X102606868Y-90956296D01*
X102516143Y-91066843D01*
X102405596Y-91157568D01*
X102279477Y-91224979D01*
X102279474Y-91224980D01*
X102279472Y-91224981D01*
X102142621Y-91266495D01*
X102057291Y-91274899D01*
X102035960Y-91277000D01*
X101964640Y-91277000D01*
X101943309Y-91274899D01*
X101857979Y-91266495D01*
X101721128Y-91224981D01*
X101721126Y-91224980D01*
X101721123Y-91224979D01*
X101595004Y-91157568D01*
X101484457Y-91066843D01*
X101393732Y-90956296D01*
X101326321Y-90830177D01*
X101326319Y-90830172D01*
X101284805Y-90693321D01*
X101270788Y-90551000D01*
X101284805Y-90408679D01*
X101326319Y-90271828D01*
X101326320Y-90271826D01*
X101326321Y-90271823D01*
X101393732Y-90145704D01*
X101484457Y-90035157D01*
X101595004Y-89944432D01*
X101721123Y-89877021D01*
X101721126Y-89877020D01*
X101721128Y-89877019D01*
X101857979Y-89835505D01*
X101943309Y-89827101D01*
X101964640Y-89825000D01*
X102035960Y-89825000D01*
X102057291Y-89827101D01*
X102057291Y-89827101D01*
G37*
G36*
X107136491Y-86727085D02*
X107170469Y-86737393D01*
X107201787Y-86754133D01*
X107229239Y-86776661D01*
X107251767Y-86804113D01*
X107268507Y-86835431D01*
X107278815Y-86869409D01*
X107282900Y-86910890D01*
X107282900Y-87587110D01*
X107278815Y-87628591D01*
X107268507Y-87662569D01*
X107251767Y-87693887D01*
X107229239Y-87721339D01*
X107201787Y-87743867D01*
X107170469Y-87760607D01*
X107136491Y-87770915D01*
X107095010Y-87775000D01*
X106493790Y-87775000D01*
X106452309Y-87770915D01*
X106418331Y-87760607D01*
X106387013Y-87743867D01*
X106359561Y-87721339D01*
X106337033Y-87693887D01*
X106320293Y-87662569D01*
X106309985Y-87628591D01*
X106305900Y-87587110D01*
X106305900Y-86910890D01*
X106309985Y-86869409D01*
X106320293Y-86835431D01*
X106337033Y-86804113D01*
X106359561Y-86776661D01*
X106387013Y-86754133D01*
X106418331Y-86737393D01*
X106452309Y-86727085D01*
X106493790Y-86723000D01*
X107095010Y-86723000D01*
X107136491Y-86727085D01*
X107136491Y-86727085D01*
G37*
G36*
X105561491Y-86727085D02*
X105595469Y-86737393D01*
X105626787Y-86754133D01*
X105654239Y-86776661D01*
X105676767Y-86804113D01*
X105693507Y-86835431D01*
X105703815Y-86869409D01*
X105707900Y-86910890D01*
X105707900Y-87587110D01*
X105703815Y-87628591D01*
X105693507Y-87662569D01*
X105676767Y-87693887D01*
X105654239Y-87721339D01*
X105626787Y-87743867D01*
X105595469Y-87760607D01*
X105561491Y-87770915D01*
X105520010Y-87775000D01*
X104918790Y-87775000D01*
X104877309Y-87770915D01*
X104843331Y-87760607D01*
X104812013Y-87743867D01*
X104784561Y-87721339D01*
X104762033Y-87693887D01*
X104745293Y-87662569D01*
X104734985Y-87628591D01*
X104730900Y-87587110D01*
X104730900Y-86910890D01*
X104734985Y-86869409D01*
X104745293Y-86835431D01*
X104762033Y-86804113D01*
X104784561Y-86776661D01*
X104812013Y-86754133D01*
X104843331Y-86737393D01*
X104877309Y-86727085D01*
X104918790Y-86723000D01*
X105520010Y-86723000D01*
X105561491Y-86727085D01*
X105561491Y-86727085D01*
G37*
G36*
X102518891Y-86688985D02*
X102552869Y-86699293D01*
X102584187Y-86716033D01*
X102611639Y-86738561D01*
X102634167Y-86766013D01*
X102650907Y-86797331D01*
X102661215Y-86831309D01*
X102665300Y-86872790D01*
X102665300Y-87549010D01*
X102661215Y-87590491D01*
X102650907Y-87624469D01*
X102634167Y-87655787D01*
X102611639Y-87683239D01*
X102584187Y-87705767D01*
X102552869Y-87722507D01*
X102518891Y-87732815D01*
X102477410Y-87736900D01*
X101876190Y-87736900D01*
X101834709Y-87732815D01*
X101800731Y-87722507D01*
X101769413Y-87705767D01*
X101741961Y-87683239D01*
X101719433Y-87655787D01*
X101702693Y-87624469D01*
X101692385Y-87590491D01*
X101688300Y-87549010D01*
X101688300Y-86872790D01*
X101692385Y-86831309D01*
X101702693Y-86797331D01*
X101719433Y-86766013D01*
X101741961Y-86738561D01*
X101769413Y-86716033D01*
X101800731Y-86699293D01*
X101834709Y-86688985D01*
X101876190Y-86684900D01*
X102477410Y-86684900D01*
X102518891Y-86688985D01*
X102518891Y-86688985D01*
G37*
G36*
X104093891Y-86688985D02*
X104127869Y-86699293D01*
X104159187Y-86716033D01*
X104186639Y-86738561D01*
X104209167Y-86766013D01*
X104225907Y-86797331D01*
X104236215Y-86831309D01*
X104240300Y-86872790D01*
X104240300Y-87549010D01*
X104236215Y-87590491D01*
X104225907Y-87624469D01*
X104209167Y-87655787D01*
X104186639Y-87683239D01*
X104159187Y-87705767D01*
X104127869Y-87722507D01*
X104093891Y-87732815D01*
X104052410Y-87736900D01*
X103451190Y-87736900D01*
X103409709Y-87732815D01*
X103375731Y-87722507D01*
X103344413Y-87705767D01*
X103316961Y-87683239D01*
X103294433Y-87655787D01*
X103277693Y-87624469D01*
X103267385Y-87590491D01*
X103263300Y-87549010D01*
X103263300Y-86872790D01*
X103267385Y-86831309D01*
X103277693Y-86797331D01*
X103294433Y-86766013D01*
X103316961Y-86738561D01*
X103344413Y-86716033D01*
X103375731Y-86699293D01*
X103409709Y-86688985D01*
X103451190Y-86684900D01*
X104052410Y-86684900D01*
X104093891Y-86688985D01*
X104093891Y-86688985D01*
G37*
G36*
X102518891Y-85152285D02*
X102552869Y-85162593D01*
X102584187Y-85179333D01*
X102611639Y-85201861D01*
X102634167Y-85229313D01*
X102650907Y-85260631D01*
X102661215Y-85294609D01*
X102665300Y-85336090D01*
X102665300Y-86012310D01*
X102661215Y-86053791D01*
X102650907Y-86087769D01*
X102634167Y-86119087D01*
X102611639Y-86146539D01*
X102584187Y-86169067D01*
X102552869Y-86185807D01*
X102518891Y-86196115D01*
X102477410Y-86200200D01*
X101876190Y-86200200D01*
X101834709Y-86196115D01*
X101800731Y-86185807D01*
X101769413Y-86169067D01*
X101741961Y-86146539D01*
X101719433Y-86119087D01*
X101702693Y-86087769D01*
X101692385Y-86053791D01*
X101688300Y-86012310D01*
X101688300Y-85336090D01*
X101692385Y-85294609D01*
X101702693Y-85260631D01*
X101719433Y-85229313D01*
X101741961Y-85201861D01*
X101769413Y-85179333D01*
X101800731Y-85162593D01*
X101834709Y-85152285D01*
X101876190Y-85148200D01*
X102477410Y-85148200D01*
X102518891Y-85152285D01*
X102518891Y-85152285D01*
G37*
G36*
X107123791Y-85152285D02*
X107157769Y-85162593D01*
X107189087Y-85179333D01*
X107216539Y-85201861D01*
X107239067Y-85229313D01*
X107255807Y-85260631D01*
X107266115Y-85294609D01*
X107270200Y-85336090D01*
X107270200Y-86012310D01*
X107266115Y-86053791D01*
X107255807Y-86087769D01*
X107239067Y-86119087D01*
X107216539Y-86146539D01*
X107189087Y-86169067D01*
X107157769Y-86185807D01*
X107123791Y-86196115D01*
X107082310Y-86200200D01*
X106481090Y-86200200D01*
X106439609Y-86196115D01*
X106405631Y-86185807D01*
X106374313Y-86169067D01*
X106346861Y-86146539D01*
X106324333Y-86119087D01*
X106307593Y-86087769D01*
X106297285Y-86053791D01*
X106293200Y-86012310D01*
X106293200Y-85336090D01*
X106297285Y-85294609D01*
X106307593Y-85260631D01*
X106324333Y-85229313D01*
X106346861Y-85201861D01*
X106374313Y-85179333D01*
X106405631Y-85162593D01*
X106439609Y-85152285D01*
X106481090Y-85148200D01*
X107082310Y-85148200D01*
X107123791Y-85152285D01*
X107123791Y-85152285D01*
G37*
G36*
X105548791Y-85152285D02*
X105582769Y-85162593D01*
X105614087Y-85179333D01*
X105641539Y-85201861D01*
X105664067Y-85229313D01*
X105680807Y-85260631D01*
X105691115Y-85294609D01*
X105695200Y-85336090D01*
X105695200Y-86012310D01*
X105691115Y-86053791D01*
X105680807Y-86087769D01*
X105664067Y-86119087D01*
X105641539Y-86146539D01*
X105614087Y-86169067D01*
X105582769Y-86185807D01*
X105548791Y-86196115D01*
X105507310Y-86200200D01*
X104906090Y-86200200D01*
X104864609Y-86196115D01*
X104830631Y-86185807D01*
X104799313Y-86169067D01*
X104771861Y-86146539D01*
X104749333Y-86119087D01*
X104732593Y-86087769D01*
X104722285Y-86053791D01*
X104718200Y-86012310D01*
X104718200Y-85336090D01*
X104722285Y-85294609D01*
X104732593Y-85260631D01*
X104749333Y-85229313D01*
X104771861Y-85201861D01*
X104799313Y-85179333D01*
X104830631Y-85162593D01*
X104864609Y-85152285D01*
X104906090Y-85148200D01*
X105507310Y-85148200D01*
X105548791Y-85152285D01*
X105548791Y-85152285D01*
G37*
G36*
X104093891Y-85152285D02*
X104127869Y-85162593D01*
X104159187Y-85179333D01*
X104186639Y-85201861D01*
X104209167Y-85229313D01*
X104225907Y-85260631D01*
X104236215Y-85294609D01*
X104240300Y-85336090D01*
X104240300Y-86012310D01*
X104236215Y-86053791D01*
X104225907Y-86087769D01*
X104209167Y-86119087D01*
X104186639Y-86146539D01*
X104159187Y-86169067D01*
X104127869Y-86185807D01*
X104093891Y-86196115D01*
X104052410Y-86200200D01*
X103451190Y-86200200D01*
X103409709Y-86196115D01*
X103375731Y-86185807D01*
X103344413Y-86169067D01*
X103316961Y-86146539D01*
X103294433Y-86119087D01*
X103277693Y-86087769D01*
X103267385Y-86053791D01*
X103263300Y-86012310D01*
X103263300Y-85336090D01*
X103267385Y-85294609D01*
X103277693Y-85260631D01*
X103294433Y-85229313D01*
X103316961Y-85201861D01*
X103344413Y-85179333D01*
X103375731Y-85162593D01*
X103409709Y-85152285D01*
X103451190Y-85148200D01*
X104052410Y-85148200D01*
X104093891Y-85152285D01*
X104093891Y-85152285D01*
G37*
G36*
X107189800Y-83167500D02*
X101287800Y-83167500D01*
X101287800Y-81265500D01*
X107189800Y-81265500D01*
X107189800Y-83167500D01*
X107189800Y-83167500D01*
G37*
G36*
X105372750Y-78795999D02*
X102970750Y-78795999D01*
X102970750Y-78193999D01*
X105372750Y-78193999D01*
X105372750Y-78795999D01*
X105372750Y-78795999D01*
G37*
G36*
X105372750Y-76746000D02*
X102970750Y-76746000D01*
X102970750Y-76144000D01*
X105372750Y-76144000D01*
X105372750Y-76746000D01*
X105372750Y-76746000D01*
G37*
M02*
