G04 #@! TF.GenerationSoftware,KiCad,Pcbnew,(5.0.2)-1*
G04 #@! TF.CreationDate,2019-10-04T12:34:02+03:00*
G04 #@! TF.ProjectId,BME280,424d4532-3830-42e6-9b69-6361645f7063,rev?*
G04 #@! TF.SameCoordinates,Original*
G04 #@! TF.FileFunction,Other,Fab,Bot*
%FSLAX46Y46*%
G04 Gerber Fmt 4.6, Leading zero omitted, Abs format (unit mm)*
G04 Created by KiCad (PCBNEW (5.0.2)-1) date 04.10.2019 12:34:02*
%MOMM*%
%LPD*%
G01*
G04 APERTURE LIST*
%ADD10C,0.150000*%
G04 APERTURE END LIST*
G04 #@! TO.C,JP1*
D10*
X117143561Y-79121261D02*
X117000704Y-79168880D01*
X116762609Y-79168880D01*
X116667371Y-79121261D01*
X116619752Y-79073642D01*
X116572133Y-78978404D01*
X116572133Y-78883166D01*
X116619752Y-78787928D01*
X116667371Y-78740309D01*
X116762609Y-78692690D01*
X116953085Y-78645071D01*
X117048323Y-78597452D01*
X117095942Y-78549833D01*
X117143561Y-78454595D01*
X117143561Y-78359357D01*
X117095942Y-78264119D01*
X117048323Y-78216500D01*
X116953085Y-78168880D01*
X116714990Y-78168880D01*
X116572133Y-78216500D01*
X116000704Y-79168880D02*
X116095942Y-79121261D01*
X116143561Y-79073642D01*
X116191180Y-78978404D01*
X116191180Y-78692690D01*
X116143561Y-78597452D01*
X116095942Y-78549833D01*
X116000704Y-78502214D01*
X115857847Y-78502214D01*
X115762609Y-78549833D01*
X115714990Y-78597452D01*
X115667371Y-78692690D01*
X115667371Y-78978404D01*
X115714990Y-79073642D01*
X115762609Y-79121261D01*
X115857847Y-79168880D01*
X116000704Y-79168880D01*
X115095942Y-79168880D02*
X115191180Y-79121261D01*
X115238800Y-79026023D01*
X115238800Y-78168880D01*
X114286419Y-79168880D02*
X114286419Y-78168880D01*
X114286419Y-79121261D02*
X114381657Y-79168880D01*
X114572133Y-79168880D01*
X114667371Y-79121261D01*
X114714990Y-79073642D01*
X114762609Y-78978404D01*
X114762609Y-78692690D01*
X114714990Y-78597452D01*
X114667371Y-78549833D01*
X114572133Y-78502214D01*
X114381657Y-78502214D01*
X114286419Y-78549833D01*
X113429276Y-79121261D02*
X113524514Y-79168880D01*
X113714990Y-79168880D01*
X113810228Y-79121261D01*
X113857847Y-79026023D01*
X113857847Y-78645071D01*
X113810228Y-78549833D01*
X113714990Y-78502214D01*
X113524514Y-78502214D01*
X113429276Y-78549833D01*
X113381657Y-78645071D01*
X113381657Y-78740309D01*
X113857847Y-78835547D01*
X112953085Y-79168880D02*
X112953085Y-78502214D01*
X112953085Y-78692690D02*
X112905466Y-78597452D01*
X112857847Y-78549833D01*
X112762609Y-78502214D01*
X112667371Y-78502214D01*
X112048323Y-78168880D02*
X112048323Y-78883166D01*
X112095942Y-79026023D01*
X112191180Y-79121261D01*
X112334038Y-79168880D01*
X112429276Y-79168880D01*
X111143561Y-78502214D02*
X111143561Y-79168880D01*
X111572133Y-78502214D02*
X111572133Y-79026023D01*
X111524514Y-79121261D01*
X111429276Y-79168880D01*
X111286419Y-79168880D01*
X111191180Y-79121261D01*
X111143561Y-79073642D01*
X110667371Y-79168880D02*
X110667371Y-78502214D01*
X110667371Y-78597452D02*
X110619752Y-78549833D01*
X110524514Y-78502214D01*
X110381657Y-78502214D01*
X110286419Y-78549833D01*
X110238800Y-78645071D01*
X110238800Y-79168880D01*
X110238800Y-78645071D02*
X110191180Y-78549833D01*
X110095942Y-78502214D01*
X109953085Y-78502214D01*
X109857847Y-78549833D01*
X109810228Y-78645071D01*
X109810228Y-79168880D01*
X109334038Y-78502214D02*
X109334038Y-79502214D01*
X109334038Y-78549833D02*
X109238800Y-78502214D01*
X109048323Y-78502214D01*
X108953085Y-78549833D01*
X108905466Y-78597452D01*
X108857847Y-78692690D01*
X108857847Y-78978404D01*
X108905466Y-79073642D01*
X108953085Y-79121261D01*
X109048323Y-79168880D01*
X109238800Y-79168880D01*
X109334038Y-79121261D01*
X108048323Y-79121261D02*
X108143561Y-79168880D01*
X108334038Y-79168880D01*
X108429276Y-79121261D01*
X108476895Y-79026023D01*
X108476895Y-78645071D01*
X108429276Y-78549833D01*
X108334038Y-78502214D01*
X108143561Y-78502214D01*
X108048323Y-78549833D01*
X108000704Y-78645071D01*
X108000704Y-78740309D01*
X108476895Y-78835547D01*
X107572133Y-79168880D02*
X107572133Y-78502214D01*
X107572133Y-78692690D02*
X107524514Y-78597452D01*
X107476895Y-78549833D01*
X107381657Y-78502214D01*
X107286419Y-78502214D01*
X107191180Y-79264119D02*
X106429276Y-79264119D01*
X106286419Y-78168880D02*
X105667371Y-78168880D01*
X106000704Y-78549833D01*
X105857847Y-78549833D01*
X105762609Y-78597452D01*
X105714990Y-78645071D01*
X105667371Y-78740309D01*
X105667371Y-78978404D01*
X105714990Y-79073642D01*
X105762609Y-79121261D01*
X105857847Y-79168880D01*
X106143561Y-79168880D01*
X106238800Y-79121261D01*
X106286419Y-79073642D01*
X105476895Y-79264119D02*
X104714990Y-79264119D01*
X104143561Y-78645071D02*
X104000704Y-78692690D01*
X103953085Y-78740309D01*
X103905466Y-78835547D01*
X103905466Y-78978404D01*
X103953085Y-79073642D01*
X104000704Y-79121261D01*
X104095942Y-79168880D01*
X104476895Y-79168880D01*
X104476895Y-78168880D01*
X104143561Y-78168880D01*
X104048323Y-78216500D01*
X104000704Y-78264119D01*
X103953085Y-78359357D01*
X103953085Y-78454595D01*
X104000704Y-78549833D01*
X104048323Y-78597452D01*
X104143561Y-78645071D01*
X104476895Y-78645071D01*
X103476895Y-79168880D02*
X103476895Y-78502214D01*
X103476895Y-78692690D02*
X103429276Y-78597452D01*
X103381657Y-78549833D01*
X103286419Y-78502214D01*
X103191180Y-78502214D01*
X102857847Y-79168880D02*
X102857847Y-78502214D01*
X102857847Y-78168880D02*
X102905466Y-78216500D01*
X102857847Y-78264119D01*
X102810228Y-78216500D01*
X102857847Y-78168880D01*
X102857847Y-78264119D01*
X101953085Y-79168880D02*
X101953085Y-78168880D01*
X101953085Y-79121261D02*
X102048323Y-79168880D01*
X102238800Y-79168880D01*
X102334038Y-79121261D01*
X102381657Y-79073642D01*
X102429276Y-78978404D01*
X102429276Y-78692690D01*
X102381657Y-78597452D01*
X102334038Y-78549833D01*
X102238800Y-78502214D01*
X102048323Y-78502214D01*
X101953085Y-78549833D01*
X101048323Y-78502214D02*
X101048323Y-79311738D01*
X101095942Y-79406976D01*
X101143561Y-79454595D01*
X101238800Y-79502214D01*
X101381657Y-79502214D01*
X101476895Y-79454595D01*
X101048323Y-79121261D02*
X101143561Y-79168880D01*
X101334038Y-79168880D01*
X101429276Y-79121261D01*
X101476895Y-79073642D01*
X101524514Y-78978404D01*
X101524514Y-78692690D01*
X101476895Y-78597452D01*
X101429276Y-78549833D01*
X101334038Y-78502214D01*
X101143561Y-78502214D01*
X101048323Y-78549833D01*
X100191180Y-79121261D02*
X100286419Y-79168880D01*
X100476895Y-79168880D01*
X100572133Y-79121261D01*
X100619752Y-79026023D01*
X100619752Y-78645071D01*
X100572133Y-78549833D01*
X100476895Y-78502214D01*
X100286419Y-78502214D01*
X100191180Y-78549833D01*
X100143561Y-78645071D01*
X100143561Y-78740309D01*
X100619752Y-78835547D01*
X99286419Y-79168880D02*
X99286419Y-78168880D01*
X99286419Y-79121261D02*
X99381657Y-79168880D01*
X99572133Y-79168880D01*
X99667371Y-79121261D01*
X99714990Y-79073642D01*
X99762609Y-78978404D01*
X99762609Y-78692690D01*
X99714990Y-78597452D01*
X99667371Y-78549833D01*
X99572133Y-78502214D01*
X99381657Y-78502214D01*
X99286419Y-78549833D01*
X98286419Y-79168880D02*
X98857847Y-79168880D01*
X98572133Y-79168880D02*
X98572133Y-78168880D01*
X98667371Y-78311738D01*
X98762609Y-78406976D01*
X98857847Y-78454595D01*
X97905466Y-78264119D02*
X97857847Y-78216500D01*
X97762609Y-78168880D01*
X97524514Y-78168880D01*
X97429276Y-78216500D01*
X97381657Y-78264119D01*
X97334038Y-78359357D01*
X97334038Y-78454595D01*
X97381657Y-78597452D01*
X97953085Y-79168880D01*
X97334038Y-79168880D01*
G04 #@! TD*
M02*
