G04 #@! TF.GenerationSoftware,KiCad,Pcbnew,(5.0.2)-1*
G04 #@! TF.CreationDate,2019-10-04T12:34:02+03:00*
G04 #@! TF.ProjectId,BME280,424d4532-3830-42e6-9b69-6361645f7063,rev?*
G04 #@! TF.SameCoordinates,Original*
G04 #@! TF.FileFunction,Copper,L2,Bot*
G04 #@! TF.FilePolarity,Positive*
%FSLAX46Y46*%
G04 Gerber Fmt 4.6, Leading zero omitted, Abs format (unit mm)*
G04 Created by KiCad (PCBNEW (5.0.2)-1) date 04.10.2019 12:34:02*
%MOMM*%
%LPD*%
G01*
G04 APERTURE LIST*
G04 #@! TA.AperFunction,ComponentPad*
%ADD10R,1.350000X1.350000*%
G04 #@! TD*
G04 #@! TA.AperFunction,ComponentPad*
%ADD11O,1.350000X1.350000*%
G04 #@! TD*
G04 #@! TA.AperFunction,ComponentPad*
%ADD12R,1.800000X1.800000*%
G04 #@! TD*
G04 #@! TA.AperFunction,ViaPad*
%ADD13C,0.600000*%
G04 #@! TD*
G04 #@! TA.AperFunction,Conductor*
%ADD14C,0.508000*%
G04 #@! TD*
G04 #@! TA.AperFunction,Conductor*
%ADD15C,0.381000*%
G04 #@! TD*
G04 #@! TA.AperFunction,Conductor*
%ADD16C,0.254000*%
G04 #@! TD*
G04 APERTURE END LIST*
D10*
G04 #@! TO.P,J1,1*
G04 #@! TO.N,+3V3*
X104000300Y-90551000D03*
D11*
G04 #@! TO.P,J1,2*
G04 #@! TO.N,I2C_SDA*
X102000300Y-90551000D03*
G04 #@! TO.P,J1,3*
G04 #@! TO.N,GND*
X104000300Y-92551000D03*
G04 #@! TO.P,J1,4*
G04 #@! TO.N,I2C_SCL*
X102000300Y-92551000D03*
G04 #@! TO.P,J1,5*
G04 #@! TO.N,N/C*
X104000300Y-94551000D03*
G04 #@! TO.P,J1,6*
G04 #@! TO.N,SPI_MISO*
X102000300Y-94551000D03*
G04 #@! TO.P,J1,7*
G04 #@! TO.N,I2C_SCL*
X104000300Y-96551000D03*
G04 #@! TO.P,J1,8*
G04 #@! TO.N,SPI_CS*
X102000300Y-96551000D03*
G04 #@! TD*
D12*
G04 #@! TO.P,JP1,1*
G04 #@! TO.N,Net-(JP1-Pad1)*
X106238800Y-82216500D03*
G04 #@! TO.P,JP1,2*
G04 #@! TO.N,SPI_MISO*
X104238800Y-82216500D03*
G04 #@! TO.P,JP1,3*
G04 #@! TO.N,GND*
X102238800Y-82216500D03*
G04 #@! TD*
G04 #@! TO.P,JP2,1*
G04 #@! TO.N,Net-(JP2-Pad1)*
X107775500Y-92681300D03*
G04 #@! TO.P,JP2,2*
G04 #@! TO.N,SPI_CS*
X107775500Y-94681300D03*
G04 #@! TO.P,JP2,3*
G04 #@! TO.N,N/C*
X107775500Y-96681300D03*
G04 #@! TD*
D13*
G04 #@! TO.N,+3V3*
X104152700Y-80086200D03*
X105206700Y-85674200D03*
G04 #@! TO.N,Net-(JP2-Pad1)*
X106781600Y-87274400D03*
G04 #@! TO.N,I2C_SDA*
X104508300Y-77381100D03*
G04 #@! TD*
D14*
G04 #@! TO.N,GND*
X102934799Y-82912499D02*
X102238800Y-82216500D01*
X102934799Y-86763161D02*
X102934799Y-82912499D01*
X105079301Y-88907663D02*
X102934799Y-86763161D01*
X105079301Y-91471999D02*
X105079301Y-88907663D01*
X104000300Y-92551000D02*
X105079301Y-91471999D01*
D15*
G04 #@! TO.N,+3V3*
X107759500Y-83121400D02*
X105206700Y-85674200D01*
X104258551Y-80187800D02*
X106845100Y-80187800D01*
X106845100Y-80187800D02*
X107759500Y-81102200D01*
X107759500Y-81102200D02*
X107759500Y-83121400D01*
X105206700Y-85674200D02*
X105206700Y-85674200D01*
G04 #@! TO.N,Net-(JP2-Pad1)*
X107775500Y-91400300D02*
X107775500Y-92681300D01*
X107775500Y-88692564D02*
X107775500Y-91400300D01*
X106781600Y-87274400D02*
X106781600Y-87698664D01*
X106781600Y-87698664D02*
X107775500Y-88692564D01*
G04 #@! TO.N,I2C_SDA*
X104508300Y-77381100D02*
X104508300Y-77406500D01*
X104508300Y-77381100D02*
X104084036Y-77381100D01*
X104084036Y-77381100D02*
X100984799Y-80480337D01*
X100984799Y-89535499D02*
X102000300Y-90551000D01*
X100984799Y-88201500D02*
X100984799Y-89535499D01*
X100984799Y-80480337D02*
X100984799Y-88201500D01*
D16*
G04 #@! TO.N,I2C_SCL*
X103325301Y-95876001D02*
X104000300Y-96551000D01*
X103048299Y-95598999D02*
X103325301Y-95876001D01*
X101639337Y-95598999D02*
X103048299Y-95598999D01*
X101048299Y-95007961D02*
X101639337Y-95598999D01*
X101048299Y-93503001D02*
X101048299Y-95007961D01*
X102000300Y-92551000D02*
X101048299Y-93503001D01*
G04 #@! TO.N,SPI_MISO*
X104361263Y-93598999D02*
X105791000Y-92169262D01*
X102000300Y-94551000D02*
X102952301Y-93598999D01*
X102952301Y-93598999D02*
X104361263Y-93598999D01*
X105791000Y-92169262D02*
X105791000Y-87947500D01*
X104238800Y-86395300D02*
X104238800Y-82216500D01*
X105791000Y-87947500D02*
X104238800Y-86395300D01*
G04 #@! TD*
M02*
